<?xml version="1.0" encoding="UTF-8"?>
<svg id="Layer_1" data-name="Layer 1" xmlns="http://www.w3.org/2000/svg" viewBox="0 0 200 200">
  <defs>
    <style>
      .cls-1 {
        fill: #f1f2ee;
        stroke-width: 0px;
      }
    </style>
  </defs>
  <path class="cls-1" d="m174.34,27.57c-.03-.15-.09-.29-.13-.43-.05-.17-.09-.34-.15-.5-.07-.17-.17-.33-.26-.5-.07-.12-.12-.25-.2-.36-.37-.55-.84-1.02-1.39-1.39-.12-.08-.25-.13-.37-.2-.16-.09-.32-.19-.49-.26-.16-.07-.33-.11-.5-.16-.14-.04-.28-.1-.43-.13-.32-.06-.65-.1-.98-.1h-49.49c-2.76,0-5,2.24-5,5s2.24,5,5,5h37.42l-40.95,40.95c-1.95,1.95-1.95,5.12,0,7.07.98.98,2.26,1.46,3.54,1.46s2.56-.49,3.54-1.46l40.95-40.95v37.42c0,2.76,2.24,5,5,5s5-2.24,5-5V28.55c0-.33-.03-.66-.1-.98Z"/>
  <path class="cls-1" d="m84.82,27.14c-.05-.17-.09-.34-.15-.5-.07-.17-.17-.33-.26-.5-.07-.12-.12-.25-.2-.36-.37-.55-.84-1.02-1.39-1.39-.12-.08-.25-.13-.37-.2-.16-.09-.32-.19-.49-.26-.16-.07-.33-.11-.5-.16-.14-.04-.28-.1-.43-.13-.32-.06-.65-.1-.98-.1H30.56c-2.76,0-5,2.24-5,5s2.24,5,5,5h37.42l-40.95,40.95c-1.95,1.95-1.95,5.12,0,7.07.98.98,2.26,1.46,3.54,1.46s2.56-.49,3.54-1.46l40.95-40.95v37.42c0,2.76,2.24,5,5,5s5-2.24,5-5V28.55c0-.33-.03-.66-.1-.98-.03-.15-.09-.29-.13-.43Z"/>
  <path class="cls-1" d="m172.98,118.43c-1.95-1.95-5.12-1.95-7.07,0l-40.95,40.95v-37.42c0-2.76-2.24-5-5-5s-5,2.24-5,5v49.49c0,.33.03.66.1.98.03.15.09.29.13.44.05.17.09.34.15.5.07.17.17.33.26.5.07.12.12.25.2.36.37.55.84,1.02,1.39,1.39.12.08.25.13.37.2.16.09.32.19.49.26.16.07.33.11.5.15.15.04.28.1.43.13.32.06.65.1.98.1h49.49c2.76,0,5-2.24,5-5s-2.24-5-5-5h-37.42l40.95-40.95c1.95-1.95,1.95-5.12,0-7.07Z"/>
  <path class="cls-1" d="m84.82,120.55c-.05-.17-.09-.34-.15-.5-.07-.17-.17-.33-.26-.5-.07-.12-.12-.25-.2-.36-.37-.55-.84-1.02-1.39-1.39-.12-.08-.25-.13-.37-.2-.16-.09-.32-.19-.49-.26-.16-.07-.33-.11-.5-.16-.14-.04-.28-.1-.43-.13-.32-.06-.65-.1-.98-.1H30.56c-2.76,0-5,2.24-5,5s2.24,5,5,5h37.42l-40.95,40.95c-1.95,1.95-1.95,5.12,0,7.07.98.98,2.26,1.46,3.54,1.46s2.56-.49,3.54-1.46l40.95-40.95v37.42c0,2.76,2.24,5,5,5s5-2.24,5-5v-49.49c0-.33-.03-.66-.1-.98-.03-.15-.09-.29-.13-.43Z"/>
</svg>