<?xml version="1.0" encoding="UTF-8"?>
<svg id="Layer_1" data-name="Layer 1" xmlns="http://www.w3.org/2000/svg" viewBox="0 0 1750 300">
  <defs>
    <style>
      .cls-1 {
        fill: #f96e43;
      }

      .cls-1, .cls-2, .cls-3, .cls-4 {
        stroke-width: 0px;
      }

      .cls-2 {
        fill: #189b5c;
      }

      .cls-3 {
        fill: #0f0f0f;
      }

      .cls-4 {
        fill: #f78bd8;
      }
    </style>
  </defs>
  <g>
    <path class="cls-3" d="m989.53,208.92v-78.46h-37.33v-39.06h37.33v-55.64h46.66v55.64h51.84v39.06h-51.84v73.97c0,13.83,6.91,20.74,20.74,20.74h31.1v39.06h-39.75c-39.4,0-58.76-18.32-58.76-55.3Z"/>
    <path class="cls-3" d="m1095.61,177.81c0-54.26,35.6-91.94,86.75-91.94s86.41,37.33,86.41,92.63v13.13h-125.12c0,22.81,17.63,39.06,42.17,39.06,16.94,0,30.76-7.95,35.95-20.74l47.01,3.45c-5.18,33.87-37.68,56.34-80.88,56.34-55.3,0-92.28-36.64-92.28-91.94Zm125.12-20.05c0-20.74-14.17-32.83-38.36-32.83s-38.71,12.44-38.71,32.83h77.08Z"/>
    <path class="cls-3" d="m1290.21,91.4h46.66v36.29c7.26-23.5,20.05-36.29,38.36-36.29h31.8v39.06h-28.34c-30.76,0-41.82,16.24-41.82,61.87v71.89h-46.66V91.4Z"/>
    <path class="cls-3" d="m1418.44,91.4h46.66v36.29c7.26-23.5,20.04-36.29,38.36-36.29h31.8v39.06h-28.34c-30.76,0-41.82,16.24-41.82,61.87v71.89h-46.66V91.4Z"/>
    <path class="cls-3" d="m1539.41,218.25c0-34.22,26.27-53.57,76.04-55.65,28.69-1.38,41.82-7.95,39.75-20.05-1.73-10.37-13.48-17.63-28.69-17.63-20.05,0-35.95,12.44-35.95,28l-46.32-3.45c0-36.98,34.56-63.6,82.26-63.6s75.69,25.58,75.69,65.67v112.67h-46.66v-34.56c-7.6,26.27-26.96,40.09-57.37,40.09-36.29,0-58.76-19.7-58.76-51.5Zm70.86,12.44c26.27,0,45.28-22.81,45.28-50.46v-3.45c-7.26,8.3-18.66,13.83-33.87,15.9-13.48,1.73-34.56,1.04-34.56,19.7,0,12.79,10.02,18.32,23.16,18.32Z"/>
  </g>
  <g>
    <path class="cls-2" d="m155.1,25.82c-68.47,0-124.18,55.71-124.18,124.18s55.71,124.18,124.18,124.18,124.18-55.71,124.18-124.18S223.57,25.82,155.1,25.82Zm0,233.1c-60.06,0-108.92-48.86-108.92-108.92s48.86-108.92,108.92-108.92,108.92,48.86,108.92,108.92-48.86,108.92-108.92,108.92Z"/>
    <path class="cls-2" d="m155.1,73.07c-42.42,0-76.93,34.51-76.93,76.93s34.51,76.93,76.93,76.93,76.93-34.51,76.93-76.93-34.51-76.93-76.93-76.93Zm0,138.6c-34,0-61.67-27.67-61.67-61.67s27.67-61.67,61.67-61.67,61.67,27.67,61.67,61.67-27.67,61.67-61.67,61.67Z"/>
    <path class="cls-2" d="m155.1,118.75c-17.23,0-31.25,14.02-31.25,31.25s14.02,31.25,31.25,31.25,31.25-14.02,31.25-31.25-14.02-31.25-31.25-31.25Zm0,47.25c-8.82,0-16-7.18-16-15.99s7.18-16,16-16,16,7.18,16,16-7.18,15.99-16,15.99Z"/>
  </g>
  <path class="cls-4" d="m599.32,145.49l-79.45-108.35c-1.44-1.96-3.72-3.12-6.15-3.12h-114.12c-2.43,0-4.71,1.16-6.15,3.12l-79.45,108.35c-1.97,2.69-1.97,6.34,0,9.02l79.45,108.35c1.44,1.96,3.72,3.12,6.15,3.12h114.12c2.43,0,4.71-1.16,6.15-3.12l79.45-108.35c1.97-2.69,1.97-6.34,0-9.02Zm-21.21-3.12h-92.31l-19.69-26.84,46.16-62.94,65.84,89.79Zm-105.64,7.63l-15.82,21.57-15.82-21.57,15.82-21.57,15.82,21.57Zm-15.82-47.37l-39.12-53.34h78.23l-39.12,53.34Zm-55.62-50.04l46.16,62.94-19.69,26.85h-92.31l65.84-89.79Zm-65.84,105.04h92.31l19.69,26.84-46.16,62.94-65.84-89.79Zm121.46,39.75l39.12,53.34h-78.23l39.12-53.34Zm55.62,50.04l-46.16-62.94,19.69-26.85h92.31l-65.84,89.79Z"/>
  <g>
    <path class="cls-1" d="m871.25,33.83h-217.08c-4.21,0-7.63,3.42-7.63,7.63s3.42,7.63,7.63,7.63h209.45v209.45c0,4.21,3.42,7.63,7.63,7.63s7.63-3.42,7.63-7.63V41.46c0-4.21-3.42-7.63-7.63-7.63Z"/>
    <path class="cls-1" d="m822.67,82.42h-168.49c-4.21,0-7.63,3.42-7.63,7.63s3.42,7.63,7.63,7.63h160.86v160.86c0,4.21,3.42,7.63,7.63,7.63s7.63-3.42,7.63-7.63V90.05c0-4.21-3.42-7.63-7.63-7.63Z"/>
    <path class="cls-1" d="m774.09,131h-119.91c-4.21,0-7.63,3.42-7.63,7.63s3.42,7.63,7.63,7.63h112.28v112.28c0,4.21,3.42,7.63,7.63,7.63s7.63-3.42,7.63-7.63v-119.91c0-4.21-3.42-7.63-7.63-7.63Z"/>
    <path class="cls-1" d="m725.5,179.59h-71.32c-4.21,0-7.63,3.42-7.63,7.63s3.42,7.63,7.63,7.63h63.7v63.7c0,4.21,3.42,7.63,7.63,7.63s7.63-3.42,7.63-7.63v-71.32c0-4.21-3.42-7.63-7.63-7.63Z"/>
    <path class="cls-1" d="m676.92,228.17h-22.74c-4.21,0-7.63,3.42-7.63,7.63s3.42,7.63,7.63,7.63h15.11v15.11c0,4.21,3.42,7.63,7.63,7.63s7.63-3.42,7.63-7.63v-22.74c0-4.21-3.42-7.63-7.63-7.63Z"/>
  </g>
</svg>