<?xml version="1.0" encoding="UTF-8"?>
<svg id="Layer_1" data-name="Layer 1" xmlns="http://www.w3.org/2000/svg" viewBox="0 0 1429.4 248.68">
  <defs>
    <style>
      .cls-1 {
        fill: #f96e43;
      }

      .cls-1, .cls-2, .cls-3, .cls-4, .cls-5, .cls-6, .cls-7 {
        stroke-width: 0px;
      }

      .cls-2 {
        fill: #189b5c;
      }

      .cls-3 {
        fill: #3d9dd8;
      }

      .cls-4 {
        fill: #0f0f0f;
      }

      .cls-5 {
        fill: #7ce55e;
      }

      .cls-6 {
        fill: #ffb41d;
      }

      .cls-7 {
        fill: #f78bd8;
      }
    </style>
  </defs>
  <path class="cls-1" d="m1102.53,201l-26.85-36.61c-.49-.66-1.26-1.05-2.08-1.05h-38.56c-.82,0-1.59.39-2.08,1.05l-26.85,36.61c-.67.91-.67,2.14,0,3.05l26.85,36.61c.49.66,1.26,1.05,2.08,1.05h38.56c.82,0,1.59-.39,2.08-1.05l26.85-36.61c.67-.91.67-2.14,0-3.05Zm-7.17-1.05h-31.19l-6.65-9.07,15.6-21.27,22.25,30.34Zm-35.7,2.58l-5.35,7.29-5.35-7.29,5.35-7.29,5.35,7.29Zm-5.35-16.01l-13.22-18.02h26.44l-13.22,18.02Zm-18.79-16.91l15.6,21.27-6.65,9.07h-31.19l22.25-30.34Zm-22.25,35.5h31.19l6.65,9.07-15.6,21.27-22.25-30.34Zm41.04,13.43l13.22,18.02h-26.44l13.22-18.02Zm18.79,16.91l-15.6-21.27,6.65-9.07h31.19l-22.25,30.34Z"/>
  <g>
    <path class="cls-5" d="m1305.52,165.18c-.02-.08-.04-.15-.07-.22-.03-.09-.05-.17-.08-.26-.04-.09-.09-.17-.13-.26-.03-.06-.06-.13-.1-.19-.19-.28-.43-.53-.72-.72-.06-.04-.13-.07-.19-.1-.08-.05-.16-.1-.25-.13-.08-.03-.17-.05-.26-.08-.07-.02-.15-.05-.22-.07-.17-.03-.34-.05-.5-.05h-25.52c-1.42,0-2.58,1.15-2.58,2.58s1.15,2.58,2.58,2.58h19.29l-21.12,21.12c-1.01,1.01-1.01,2.64,0,3.65.5.5,1.16.76,1.82.76s1.32-.25,1.82-.76l21.12-21.12v19.29c0,1.42,1.15,2.58,2.58,2.58s2.58-1.15,2.58-2.58v-25.52c0-.17-.02-.34-.05-.5Z"/>
    <path class="cls-5" d="m1259.36,164.96c-.03-.09-.05-.17-.08-.26-.04-.09-.09-.17-.13-.26-.03-.06-.06-.13-.1-.19-.19-.28-.43-.53-.72-.72-.06-.04-.13-.07-.19-.1-.08-.05-.16-.1-.25-.13-.08-.03-.17-.05-.26-.08-.07-.02-.15-.05-.22-.07-.17-.03-.34-.05-.5-.05h-25.52c-1.42,0-2.58,1.15-2.58,2.58s1.15,2.58,2.58,2.58h19.29l-21.12,21.12c-1.01,1.01-1.01,2.64,0,3.65.5.5,1.16.76,1.82.76s1.32-.25,1.82-.76l21.12-21.12v19.29c0,1.42,1.15,2.58,2.58,2.58s2.58-1.15,2.58-2.58v-25.52c0-.17-.02-.34-.05-.5-.02-.08-.04-.15-.07-.22Z"/>
    <path class="cls-5" d="m1304.81,212.03c-1.01-1.01-2.64-1.01-3.65,0l-21.12,21.12v-19.29c0-1.42-1.15-2.58-2.58-2.58s-2.58,1.15-2.58,2.58v25.52c0,.17.02.34.05.5.02.08.04.15.07.22.03.09.05.17.08.26.04.09.09.17.14.26.03.06.06.13.1.19.19.28.43.53.72.72.06.04.13.07.19.1.08.05.16.1.25.13.08.03.17.05.26.08.07.02.15.05.22.07.17.03.34.05.5.05h25.52c1.42,0,2.58-1.15,2.58-2.58s-1.15-2.58-2.58-2.58h-19.29l21.12-21.12c1.01-1.01,1.01-2.64,0-3.65Z"/>
    <path class="cls-5" d="m1259.36,213.12c-.03-.09-.05-.17-.08-.26-.04-.09-.09-.17-.13-.26-.03-.06-.06-.13-.1-.19-.19-.28-.43-.53-.72-.72-.06-.04-.13-.07-.19-.1-.08-.05-.16-.1-.25-.13-.08-.03-.17-.05-.26-.08-.07-.02-.15-.05-.22-.07-.17-.03-.34-.05-.5-.05h-25.52c-1.42,0-2.58,1.15-2.58,2.58s1.15,2.58,2.58,2.58h19.29l-21.12,21.12c-1.01,1.01-1.01,2.64,0,3.65.5.5,1.16.76,1.82.76s1.32-.25,1.82-.76l21.12-21.12v19.29c0,1.42,1.15,2.58,2.58,2.58s2.58-1.15,2.58-2.58v-25.52c0-.17-.02-.34-.05-.5-.02-.08-.04-.15-.07-.22Z"/>
  </g>
  <path class="cls-2" d="m963.03,162.1c-5.67,0-10.92,1.88-15.14,5.05-4.22-3.17-9.47-5.05-15.14-5.05-13.94,0-25.29,11.34-25.29,25.29v30.28c0,13.94,11.34,25.29,25.29,25.29,5.67,0,10.92-1.88,15.14-5.05,4.22,3.17,9.47,5.05,15.14,5.05,13.94,0,25.29-11.34,25.29-25.29v-30.28c0-13.94-11.34-25.29-25.29-25.29Zm-15.14,68.81c-3.1-3.54-4.99-8.18-4.99-13.25v-30.28c0-5.07,1.89-9.7,4.99-13.25,3.1,3.54,4.99,8.18,4.99,13.25v30.28c0,5.07-1.89,9.7-4.99,13.25Zm-35.27-13.25v-30.28c0-11.1,9.03-20.13,20.13-20.13,4.18,0,8.06,1.28,11.28,3.47-3.91,4.45-6.29,10.28-6.29,16.66v30.28c0,6.38,2.38,12.21,6.29,16.66-3.22,2.19-7.1,3.47-11.28,3.47-11.1,0-20.13-9.03-20.13-20.13Zm70.54,0c0,11.1-9.03,20.13-20.13,20.13-4.18,0-8.06-1.28-11.28-3.47,3.91-4.45,6.29-10.28,6.29-16.66v-30.28c0-6.38-2.38-12.21-6.29-16.66,3.22-2.19,7.1-3.47,11.28-3.47,11.1,0,20.13,9.03,20.13,20.13v30.28Z"/>
  <path class="cls-2" d="m1305.03,62.25c-1.42,0-2.58,1.15-2.58,2.58v65.29c0,3.8-3.09,6.88-6.88,6.88s-6.88-3.09-6.88-6.88v-56.77c0-6.64-5.4-12.04-12.04-12.04s-12.04,5.4-12.04,12.04v56.77c0,3.8-3.09,6.88-6.88,6.88s-6.88-3.09-6.88-6.88v-56.77c0-6.64-5.4-12.04-12.04-12.04s-12.04,5.4-12.04,12.04v65.29c0,1.42,1.15,2.58,2.58,2.58s2.58-1.15,2.58-2.58v-65.29c0-3.8,3.09-6.88,6.88-6.88s6.88,3.09,6.88,6.88v56.77c0,6.64,5.4,12.04,12.04,12.04s12.04-5.4,12.04-12.04v-56.77c0-3.8,3.09-6.88,6.88-6.88s6.88,3.09,6.88,6.88v56.77c0,6.64,5.4,12.04,12.04,12.04s12.04-5.4,12.04-12.04v-65.29c0-1.42-1.15-2.58-2.58-2.58Z"/>
  <g>
    <path class="cls-7" d="m1373.62,78.8c-2.35,0-4.26,1.91-4.26,4.26s1.91,4.26,4.26,4.26,4.26-1.91,4.26-4.26-1.91-4.26-4.26-4.26Z"/>
    <path class="cls-7" d="m1373.62,60.13c-2.35,0-4.26,1.91-4.26,4.26s1.91,4.26,4.26,4.26,4.26-1.91,4.26-4.26-1.91-4.26-4.26-4.26Z"/>
    <circle class="cls-7" cx="1386.82" cy="88.53" r="4.26"/>
    <circle class="cls-7" cx="1400.02" cy="75.33" r="4.26"/>
    <circle class="cls-7" cx="1392.29" cy="101.73" r="4.26"/>
    <path class="cls-7" d="m1410.96,97.47c-2.35,0-4.26,1.91-4.26,4.26s1.91,4.26,4.26,4.26,4.26-1.91,4.26-4.26-1.91-4.26-4.26-4.26Z"/>
    <circle class="cls-7" cx="1386.82" cy="114.93" r="4.26"/>
    <circle class="cls-7" cx="1400.02" cy="128.14" r="4.26"/>
    <path class="cls-7" d="m1373.62,116.14c-2.35,0-4.26,1.91-4.26,4.26s1.91,4.26,4.26,4.26,4.26-1.91,4.26-4.26-1.91-4.26-4.26-4.26Z"/>
    <path class="cls-7" d="m1373.62,134.81c-2.35,0-4.26,1.91-4.26,4.26s1.91,4.26,4.26,4.26,4.26-1.91,4.26-4.26-1.91-4.26-4.26-4.26Z"/>
    <path class="cls-7" d="m1357.4,111.92c-1.66,1.66-1.66,4.36,0,6.03,1.66,1.66,4.36,1.66,6.03,0,1.66-1.66,1.66-4.36,0-6.03s-4.36-1.66-6.03,0Z"/>
    <path class="cls-7" d="m1344.2,125.12c-1.66,1.66-1.66,4.36,0,6.03,1.66,1.66,4.36,1.66,6.03,0,1.66-1.66,1.66-4.36,0-6.03-1.66-1.66-4.36-1.66-6.03,0Z"/>
    <path class="cls-7" d="m1359.21,101.73c0-2.35-1.91-4.26-4.26-4.26s-4.26,1.91-4.26,4.26,1.91,4.26,4.26,4.26,4.26-1.91,4.26-4.26Z"/>
    <path class="cls-7" d="m1340.54,101.73c0-2.35-1.91-4.26-4.26-4.26s-4.26,1.91-4.26,4.26,1.91,4.26,4.26,4.26,4.26-1.91,4.26-4.26Z"/>
    <path class="cls-7" d="m1357.4,85.52c-1.66,1.66-1.66,4.36,0,6.03,1.66,1.66,4.36,1.66,6.03,0s1.66-4.36,0-6.03c-1.66-1.66-4.36-1.66-6.03,0Z"/>
    <path class="cls-7" d="m1350.23,78.34c1.66-1.66,1.66-4.36,0-6.03-1.66-1.66-4.36-1.66-6.03,0-1.66,1.66-1.66,4.36,0,6.03,1.66,1.66,4.36,1.66,6.03,0Z"/>
    <path class="cls-7" d="m1360.96,71.17c2.18-.9,3.21-3.39,2.31-5.57-.9-2.18-3.39-3.21-5.57-2.31-2.18.9-3.21,3.39-2.31,5.57.9,2.18,3.39,3.21,5.57,2.31Z"/>
    <path class="cls-7" d="m1386.28,71.17c2.18.9,4.67-.13,5.57-2.31.9-2.18-.13-4.67-2.31-5.57-2.18-.9-4.67.13-5.57,2.31-.9,2.18.13,4.67,2.31,5.57Z"/>
    <path class="cls-7" d="m1404.18,89.07c.9,2.18,3.39,3.21,5.57,2.31,2.18-.9,3.21-3.39,2.31-5.57-.9-2.18-3.39-3.21-5.57-2.31s-3.21,3.39-2.31,5.57Z"/>
    <path class="cls-7" d="m1409.75,112.08c-2.18-.9-4.67.13-5.57,2.31-.9,2.18.13,4.67,2.31,5.57,2.18.9,4.67-.13,5.57-2.31.9-2.18-.13-4.67-2.31-5.57Z"/>
    <path class="cls-7" d="m1386.28,132.29c-2.18.9-3.21,3.39-2.31,5.57.9,2.18,3.39,3.21,5.57,2.31,2.18-.9,3.21-3.39,2.31-5.57-.9-2.18-3.39-3.21-5.57-2.31Z"/>
    <path class="cls-7" d="m1360.96,132.29c-2.18-.9-4.67.13-5.57,2.31-.9,2.18.13,4.67,2.31,5.57,2.18.9,4.67-.13,5.57-2.31.9-2.18-.13-4.67-2.31-5.57Z"/>
    <path class="cls-7" d="m1343.05,114.39c-.9-2.18-3.39-3.21-5.57-2.31-2.18.9-3.21,3.39-2.31,5.57.9,2.18,3.39,3.21,5.57,2.31,2.18-.9,3.21-3.39,2.31-5.57Z"/>
    <path class="cls-7" d="m1337.49,91.38c2.18.9,4.67-.13,5.57-2.31.9-2.18-.13-4.67-2.31-5.57-2.18-.9-4.67.13-5.57,2.31-.9,2.18.13,4.67,2.31,5.57Z"/>
  </g>
  <g>
    <path class="cls-5" d="m1054.32,115.26c-2.35,0-4.26,1.91-4.26,4.26s1.91,4.26,4.26,4.26,4.26-1.91,4.26-4.26-1.91-4.26-4.26-4.26Z"/>
    <path class="cls-5" d="m1054.32,133.05c-2.35,0-4.26,1.91-4.26,4.26s1.91,4.26,4.26,4.26,4.26-1.91,4.26-4.26-1.91-4.26-4.26-4.26Z"/>
    <path class="cls-5" d="m1054.32,61.89c-2.35,0-4.26,1.91-4.26,4.26s1.91,4.26,4.26,4.26,4.26-1.91,4.26-4.26-1.91-4.26-4.26-4.26Z"/>
    <path class="cls-5" d="m1054.32,79.68c-2.35,0-4.26,1.91-4.26,4.26s1.91,4.26,4.26,4.26,4.26-1.91,4.26-4.26-1.91-4.26-4.26-4.26Z"/>
    <path class="cls-5" d="m1016.72,97.47c-2.35,0-4.26,1.91-4.26,4.26s1.91,4.26,4.26,4.26,4.26-1.91,4.26-4.26-1.91-4.26-4.26-4.26Z"/>
    <path class="cls-5" d="m1016.72,115.26c-2.35,0-4.26,1.91-4.26,4.26s1.91,4.26,4.26,4.26,4.26-1.91,4.26-4.26-1.91-4.26-4.26-4.26Z"/>
    <path class="cls-5" d="m1016.72,133.05c-2.35,0-4.26,1.91-4.26,4.26s1.91,4.26,4.26,4.26,4.26-1.91,4.26-4.26-1.91-4.26-4.26-4.26Z"/>
    <path class="cls-5" d="m1016.72,79.68c-2.35,0-4.26,1.91-4.26,4.26s1.91,4.26,4.26,4.26,4.26-1.91,4.26-4.26-1.91-4.26-4.26-4.26Z"/>
    <circle class="cls-5" cx="1035.52" cy="101.73" r="4.26"/>
    <circle class="cls-5" cx="1035.52" cy="119.52" r="4.26"/>
    <circle class="cls-5" cx="1035.52" cy="137.31" r="4.26"/>
    <circle class="cls-5" cx="1035.52" cy="66.15" r="4.26"/>
    <circle class="cls-5" cx="1035.52" cy="83.94" r="4.26"/>
    <path class="cls-5" d="m1091.92,97.47c-2.35,0-4.26,1.91-4.26,4.26s1.91,4.26,4.26,4.26,4.26-1.91,4.26-4.26-1.91-4.26-4.26-4.26Z"/>
    <path class="cls-5" d="m1091.92,115.26c-2.35,0-4.26,1.91-4.26,4.26s1.91,4.26,4.26,4.26,4.26-1.91,4.26-4.26-1.91-4.26-4.26-4.26Z"/>
    <path class="cls-5" d="m1091.92,70.42c2.35,0,4.26-1.91,4.26-4.26s-1.91-4.26-4.26-4.26-4.26,1.91-4.26,4.26,1.91,4.26,4.26,4.26Z"/>
    <path class="cls-5" d="m1091.92,79.68c-2.35,0-4.26,1.91-4.26,4.26s1.91,4.26,4.26,4.26,4.26-1.91,4.26-4.26-1.91-4.26-4.26-4.26Z"/>
    <circle class="cls-5" cx="1073.12" cy="101.73" r="4.26"/>
    <circle class="cls-5" cx="1073.12" cy="119.52" r="4.26"/>
    <circle class="cls-5" cx="1073.12" cy="137.31" r="4.26"/>
    <circle class="cls-5" cx="1073.12" cy="66.15" r="4.26"/>
    <circle class="cls-5" cx="1073.12" cy="83.94" r="4.26"/>
  </g>
  <g>
    <path class="cls-7" d="m812.05,200.39c-3.88-2.89-7.23-5.38-7.23-10.24s3.35-7.35,7.23-10.24c4.36-3.25,9.31-6.93,9.31-14.38,0-1.42-1.15-2.58-2.58-2.58s-2.58,1.15-2.58,2.58c0,4.86-3.35,7.35-7.23,10.24-4.36,3.25-9.31,6.93-9.31,14.38s4.95,11.13,9.31,14.38c3.88,2.89,7.23,5.38,7.23,10.24s-3.35,7.35-7.23,10.24c-4.36,3.25-9.31,6.93-9.31,14.38,0,1.42,1.15,2.58,2.58,2.58s2.58-1.15,2.58-2.58c0-4.86,3.35-7.35,7.23-10.24,4.36-3.25,9.31-6.93,9.31-14.38s-4.95-11.13-9.31-14.38Z"/>
    <path class="cls-7" d="m832.69,200.44c-3.88-2.89-7.23-5.38-7.23-10.24s3.35-7.35,7.23-10.24c4.36-3.25,9.31-6.93,9.31-14.38,0-1.42-1.15-2.58-2.58-2.58s-2.58,1.15-2.58,2.58c0,4.86-3.35,7.35-7.23,10.24-4.36,3.25-9.31,6.93-9.31,14.38s4.95,11.13,9.31,14.38c3.88,2.89,7.23,5.38,7.23,10.24s-3.35,7.35-7.23,10.24c-4.36,3.25-9.31,6.93-9.31,14.38,0,1.42,1.15,2.58,2.58,2.58s2.58-1.15,2.58-2.58c0-4.86,3.35-7.35,7.23-10.24,4.36-3.25,9.31-6.93,9.31-14.38s-4.95-11.13-9.31-14.38Z"/>
    <path class="cls-7" d="m853.32,200.48c-3.88-2.89-7.23-5.38-7.23-10.24s3.35-7.35,7.23-10.24c4.36-3.25,9.31-6.93,9.31-14.38,0-1.42-1.15-2.58-2.58-2.58s-2.58,1.15-2.58,2.58c0,4.86-3.35,7.35-7.23,10.24-4.36,3.25-9.31,6.93-9.31,14.38s4.95,11.13,9.31,14.38c3.88,2.89,7.23,5.38,7.23,10.24s-3.35,7.35-7.23,10.24c-4.36,3.25-9.31,6.93-9.31,14.38,0,1.42,1.15,2.58,2.58,2.58s2.58-1.15,2.58-2.58c0-4.86,3.35-7.35,7.23-10.24,4.36-3.25,9.31-6.93,9.31-14.38s-4.95-11.13-9.31-14.38Z"/>
    <path class="cls-7" d="m873.95,200.52c-3.88-2.89-7.23-5.38-7.23-10.24s3.35-7.35,7.23-10.24c4.36-3.25,9.31-6.93,9.31-14.38,0-1.42-1.15-2.58-2.58-2.58s-2.58,1.15-2.58,2.58c0,4.86-3.35,7.35-7.23,10.24-4.36,3.25-9.31,6.93-9.31,14.38s4.95,11.13,9.31,14.38c3.88,2.89,7.23,5.38,7.23,10.24s-3.35,7.35-7.23,10.24c-4.36,3.25-9.31,6.93-9.31,14.38,0,1.42,1.15,2.58,2.58,2.58s2.58-1.15,2.58-2.58c0-4.86,3.35-7.35,7.23-10.24,4.36-3.25,9.31-6.93,9.31-14.38s-4.95-11.13-9.31-14.38Z"/>
  </g>
  <g>
    <path class="cls-3" d="m1197.43,163.27h-73.35c-1.42,0-2.58,1.15-2.58,2.58s1.15,2.58,2.58,2.58h70.78v70.78c0,1.42,1.15,2.58,2.58,2.58s2.58-1.15,2.58-2.58v-73.35c0-1.42-1.15-2.58-2.58-2.58Z"/>
    <path class="cls-3" d="m1181.01,179.69h-56.94c-1.42,0-2.58,1.15-2.58,2.58s1.15,2.58,2.58,2.58h54.36v54.36c0,1.42,1.15,2.58,2.58,2.58s2.58-1.15,2.58-2.58v-56.94c0-1.42-1.15-2.58-2.58-2.58Z"/>
    <path class="cls-3" d="m1164.6,196.11h-40.52c-1.42,0-2.58,1.15-2.58,2.58s1.15,2.58,2.58,2.58h37.94v37.94c0,1.42,1.15,2.58,2.58,2.58s2.58-1.15,2.58-2.58v-40.52c0-1.42-1.15-2.58-2.58-2.58Z"/>
    <path class="cls-3" d="m1148.18,212.53h-24.1c-1.42,0-2.58,1.15-2.58,2.58s1.15,2.58,2.58,2.58h21.52v21.52c0,1.42,1.15,2.58,2.58,2.58s2.58-1.15,2.58-2.58v-24.1c0-1.42-1.15-2.58-2.58-2.58Z"/>
    <path class="cls-3" d="m1131.76,228.94h-7.68c-1.42,0-2.58,1.15-2.58,2.58s1.15,2.58,2.58,2.58h5.11v5.11c0,1.42,1.15,2.58,2.58,2.58s2.58-1.15,2.58-2.58v-7.68c0-1.42-1.15-2.58-2.58-2.58Z"/>
  </g>
  <path class="cls-6" d="m1411.62,205.11c1.42,0,2.58-1.15,2.58-2.58s-1.15-2.58-2.58-2.58h-13.22v-17.04h13.22c1.42,0,2.58-1.15,2.58-2.58s-1.15-2.58-2.58-2.58h-13.22v-13.22c0-1.42-1.15-2.58-2.58-2.58s-2.58,1.15-2.58,2.58v13.22h-17.04v-13.22c0-1.42-1.15-2.58-2.58-2.58s-2.58,1.15-2.58,2.58v13.22h-17.04v-13.22c0-1.42-1.15-2.58-2.58-2.58s-2.58,1.15-2.58,2.58v13.22h-13.22c-1.42,0-2.58,1.15-2.58,2.58s1.15,2.58,2.58,2.58h13.22v17.04h-13.22c-1.42,0-2.58,1.15-2.58,2.58s1.15,2.58,2.58,2.58h13.22v17.04h-13.22c-1.42,0-2.58,1.15-2.58,2.58s1.15,2.58,2.58,2.58h13.22v13.22c0,1.42,1.15,2.58,2.58,2.58s2.58-1.15,2.58-2.58v-13.22h17.04v13.22c0,1.42,1.15,2.58,2.58,2.58s2.58-1.15,2.58-2.58v-13.22h17.04v13.22c0,1.42,1.15,2.58,2.58,2.58s2.58-1.15,2.58-2.58v-13.22h13.22c1.42,0,2.58-1.15,2.58-2.58s-1.15-2.58-2.58-2.58h-13.22v-17.04h13.22Zm-18.38-22.2v17.04h-17.04v-17.04h17.04Zm-39.24,0h17.04v17.04h-17.04v-17.04Zm0,39.24v-17.04h17.04v17.04h-17.04Zm39.24,0h-17.04v-17.04h17.04v17.04Z"/>
  <path class="cls-1" d="m1183.99,101.73l19.56-34.66c.45-.8.44-1.78-.02-2.57-.46-.79-1.31-1.28-2.23-1.28h-81.09c-.92,0-1.76.49-2.23,1.28-.46.79-.47,1.77-.02,2.57l19.56,34.66-19.56,34.66c-.45.8-.44,1.78.02,2.57.46.79,1.31,1.28,2.23,1.28h81.09c.92,0,1.76-.49,2.23-1.28.46-.79.47-1.77.02-2.57l-19.56-34.66Zm-2.96-5.25l-15.86-28.1h31.71l-15.86,28.1Zm-2.96,5.25l-17.31,30.68-17.31-30.68,17.31-30.68,17.31,30.68Zm-53.44-33.34h31.71l-15.86,28.1-15.86-28.1Zm15.86,38.59l15.86,28.1h-31.71l15.86-28.1Zm24.69,28.1l15.86-28.1,15.86,28.1h-31.71Z"/>
  <g>
    <path class="cls-6" d="m947.89,59.77c-23.14,0-41.96,18.82-41.96,41.96s18.82,41.96,41.96,41.96,41.96-18.82,41.96-41.96-18.82-41.96-41.96-41.96Zm0,78.77c-20.29,0-36.81-16.51-36.81-36.81s16.51-36.81,36.81-36.81,36.81,16.51,36.81,36.81-16.51,36.81-36.81,36.81Z"/>
    <path class="cls-6" d="m947.89,75.74c-14.33,0-26,11.66-26,26s11.66,25.99,26,25.99,26-11.66,26-25.99-11.66-26-26-26Zm0,46.83c-11.49,0-20.84-9.35-20.84-20.84s9.35-20.84,20.84-20.84,20.84,9.35,20.84,20.84-9.35,20.84-20.84,20.84Z"/>
    <path class="cls-6" d="m947.89,91.17c-5.82,0-10.56,4.74-10.56,10.56s4.74,10.56,10.56,10.56,10.56-4.74,10.56-10.56-4.74-10.56-10.56-10.56Zm0,15.97c-2.98,0-5.41-2.42-5.41-5.4s2.42-5.41,5.41-5.41,5.41,2.42,5.41,5.41-2.42,5.4-5.41,5.4Z"/>
  </g>
  <path class="cls-3" d="m883.45,95.28l-15.71-2.04s-.03-.06,0-.11l11.48-10.86c2.45-2.31,2.77-5.83.79-8.55-1.98-2.72-5.43-3.5-8.38-1.89l-13.91,7.58s-.06-.03-.07-.09l2.91-15.53c.62-3.31-1.18-6.35-4.39-7.39-3.2-1.04-6.45.36-7.89,3.4l-6.78,14.28-.02.03s-.07.01-.11-.03l-6.78-14.28c-1.44-3.04-4.69-4.44-7.89-3.4-3.2,1.04-5.01,4.08-4.39,7.39l2.91,15.57s-.05.05-.1.04l-13.87-7.57c-2.96-1.61-6.4-.84-8.38,1.89-1.98,2.72-1.65,6.24.79,8.55l11.51,10.88s-.01.07-.06.09l-15.67,2.03c-3.34.43-5.67,3.09-5.67,6.45s2.33,6.02,5.67,6.45l15.71,2.04s.03.06,0,.11l-11.48,10.86c-2.45,2.31-2.77,5.83-.79,8.55,1.98,2.72,5.43,3.5,8.38,1.89l13.91-7.58s.06.03.07.09l-2.91,15.53c-.62,3.31,1.18,6.35,4.39,7.39.71.23,1.42.34,2.11.34,2.44,0,4.65-1.37,5.78-3.74l6.79-14.31s.07-.01.11.03l6.78,14.28c1.44,3.04,4.69,4.44,7.89,3.4,3.2-1.04,5.01-4.08,4.39-7.39l-2.91-15.57s.05-.05.1-.04l13.87,7.57c2.96,1.61,6.4.84,8.38-1.89,1.98-2.72,1.65-6.24-.79-8.55l-11.51-10.88s.01-.07.06-.09l15.67-2.03c3.34-.43,5.67-3.09,5.67-6.45s-2.33-6.02-5.67-6.45Zm-.66,7.79l-15.67,2.03c-2.02.26-3.67,1.63-4.3,3.57-.63,1.94-.1,4.01,1.38,5.41l11.48,10.86c.75.71.43,1.42.16,1.78s-.83.89-1.74.39l-13.87-7.57c-1.79-.98-3.92-.84-5.57.36-1.65,1.2-2.44,3.18-2.06,5.19l2.91,15.53c.19,1.02-.49,1.4-.91,1.53-.42.14-1.2.23-1.64-.71l-6.78-14.28c-.87-1.84-2.68-2.98-4.72-2.98s-3.85,1.14-4.72,2.98l-6.78,14.28c-.44.93-1.22.84-1.64.71-.42-.14-1.1-.52-.91-1.53l2.91-15.53c.38-2-.42-3.99-2.06-5.19-.92-.67-1.99-1.01-3.06-1.01-.86,0-1.72.21-2.51.65l-13.87,7.57c-.91.49-1.48-.03-1.74-.39-.26-.36-.59-1.07.17-1.78l11.48-10.86c1.48-1.4,2.01-3.47,1.38-5.41-.63-1.94-2.28-3.3-4.3-3.57l-15.67-2.03c-1.03-.13-1.18-.9-1.18-1.34s.15-1.21,1.18-1.34l15.67-2.03c2.02-.26,3.67-1.63,4.3-3.57.63-1.94.1-4.01-1.38-5.41l-11.48-10.86c-.75-.71-.43-1.42-.17-1.78.26-.36.84-.89,1.74-.39l13.87,7.57c1.79.98,3.92.84,5.57-.36,1.65-1.2,2.44-3.19,2.06-5.19l-2.91-15.53c-.19-1.02.49-1.4.91-1.53.42-.14,1.2-.23,1.64.71l6.78,14.28c.87,1.84,2.68,2.98,4.72,2.98s3.85-1.14,4.72-2.98l6.78-14.28c.44-.93,1.22-.84,1.64-.71.42.14,1.1.52.91,1.53l-2.91,15.53c-.37,2,.42,3.99,2.06,5.19,1.65,1.2,3.78,1.33,5.57.36l13.87-7.57c.91-.5,1.48.03,1.74.39.26.36.59,1.07-.16,1.78l-11.49,10.86c-1.48,1.4-2.01,3.47-1.38,5.41.63,1.94,2.28,3.3,4.3,3.57l15.67,2.03c1.02.13,1.18.9,1.18,1.34s-.15,1.21-1.18,1.34Z"/>
  <g>
    <path class="cls-4" d="m37.97,181.23v-79.81H0v-39.73h37.97V5.09h47.46v56.6h52.74v39.73h-52.74v75.24c0,14.06,7.03,21.09,21.1,21.09h31.64v39.73h-40.43c-40.08,0-59.77-18.63-59.77-56.25Z"/>
    <path class="cls-4" d="m145.87,149.58c0-55.2,36.21-93.52,88.25-93.52s87.9,37.97,87.9,94.22v13.36h-127.27c0,23.2,17.93,39.73,42.89,39.73,17.23,0,31.29-8.09,36.56-21.09l47.81,3.51c-5.27,34.46-38.32,57.31-82.27,57.31-56.25,0-93.87-37.27-93.87-93.52Zm127.27-20.39c0-21.09-14.42-33.4-39.02-33.4s-39.38,12.66-39.38,33.4h78.4Z"/>
    <path class="cls-4" d="m343.82,61.69h47.46v36.92c7.38-23.91,20.39-36.92,39.02-36.92h32.35v39.73h-28.83c-31.29,0-42.54,16.52-42.54,62.93v73.13h-47.46V61.69Z"/>
    <path class="cls-4" d="m474.26,61.69h47.46v36.92c7.38-23.91,20.39-36.92,39.02-36.92h32.34v39.73h-28.83c-31.29,0-42.54,16.52-42.54,62.93v73.13h-47.46V61.69Z"/>
    <path class="cls-4" d="m597.31,190.72c0-34.81,26.72-54.5,77.35-56.6,29.18-1.41,42.54-8.09,40.43-20.39-1.76-10.55-13.71-17.93-29.18-17.93-20.39,0-36.56,12.66-36.56,28.48l-47.11-3.51c0-37.62,35.16-64.69,83.68-64.69s76.99,26.02,76.99,66.8v114.61h-47.46v-35.16c-7.73,26.72-27.42,40.78-58.36,40.78-36.92,0-59.77-20.04-59.77-52.38Zm72.08,12.66c26.72,0,46.06-23.2,46.06-51.33v-3.51c-7.38,8.44-18.98,14.06-34.46,16.17-13.71,1.76-35.16,1.06-35.16,20.04,0,13.01,10.19,18.63,23.56,18.63Z"/>
  </g>
</svg>