<?xml version="1.0" encoding="UTF-8"?>
<svg id="Layer_1" data-name="Layer 1" xmlns="http://www.w3.org/2000/svg" viewBox="0 0 200 200">
  <defs>
    <style>
      .cls-1 {
        fill: #7ce55e;
        stroke-width: 0px;
      }
    </style>
  </defs>
  <path class="cls-1" d="m100,55.52c-4.57,0-8.27,3.7-8.27,8.27s3.7,8.27,8.27,8.27,8.27-3.7,8.27-8.27-3.7-8.27-8.27-8.27Z"/>
  <path class="cls-1" d="m100,19.31c-4.57,0-8.27,3.7-8.27,8.27s3.7,8.27,8.27,8.27,8.27-3.7,8.27-8.27-3.7-8.27-8.27-8.27Z"/>
  <circle class="cls-1" cx="125.61" cy="74.39" r="8.27"/>
  <circle class="cls-1" cx="151.21" cy="48.79" r="8.27"/>
  <circle class="cls-1" cx="136.21" cy="100" r="8.27"/>
  <path class="cls-1" d="m172.43,91.73c-4.57,0-8.27,3.7-8.27,8.27s3.7,8.27,8.27,8.27,8.27-3.7,8.27-8.27-3.7-8.27-8.27-8.27Z"/>
  <circle class="cls-1" cx="125.61" cy="125.61" r="8.27"/>
  <circle class="cls-1" cx="151.21" cy="151.21" r="8.27"/>
  <path class="cls-1" d="m100,127.94c-4.57,0-8.27,3.7-8.27,8.27s3.7,8.27,8.27,8.27,8.27-3.7,8.27-8.27-3.7-8.27-8.27-8.27Z"/>
  <path class="cls-1" d="m100,164.16c-4.57,0-8.27,3.7-8.27,8.27s3.7,8.27,8.27,8.27,8.27-3.7,8.27-8.27-3.7-8.27-8.27-8.27Z"/>
  <path class="cls-1" d="m68.55,119.76c-3.23,3.23-3.23,8.46,0,11.69,3.23,3.23,8.46,3.23,11.69,0s3.23-8.46,0-11.69-8.46-3.23-11.69,0Z"/>
  <path class="cls-1" d="m42.94,145.37c-3.23,3.23-3.23,8.46,0,11.69,3.23,3.23,8.46,3.23,11.69,0,3.23-3.23,3.23-8.46,0-11.69-3.23-3.23-8.46-3.23-11.69,0Z"/>
  <path class="cls-1" d="m72.06,100c0-4.57-3.7-8.27-8.27-8.27s-8.27,3.7-8.27,8.27,3.7,8.27,8.27,8.27,8.27-3.7,8.27-8.27Z"/>
  <path class="cls-1" d="m35.84,100c0-4.57-3.7-8.27-8.27-8.27s-8.27,3.7-8.27,8.27,3.7,8.27,8.27,8.27,8.27-3.7,8.27-8.27Z"/>
  <path class="cls-1" d="m68.55,68.55c-3.23,3.23-3.23,8.46,0,11.69,3.23,3.23,8.46,3.23,11.69,0s3.23-8.46,0-11.69-8.46-3.23-11.69,0Z"/>
  <path class="cls-1" d="m54.63,54.63c3.23-3.23,3.23-8.46,0-11.69-3.23-3.23-8.46-3.23-11.69,0-3.23,3.23-3.23,8.46,0,11.69,3.23,3.23,8.46,3.23,11.69,0Z"/>
  <path class="cls-1" d="m75.45,40.73c4.22-1.75,6.22-6.58,4.47-10.8-1.75-4.22-6.58-6.22-10.8-4.47-4.22,1.75-6.22,6.58-4.47,10.8s6.58,6.22,10.8,4.47Z"/>
  <path class="cls-1" d="m124.55,40.73c4.22,1.75,9.05-.26,10.8-4.47,1.75-4.22-.26-9.05-4.47-10.8-4.22-1.75-9.05.26-10.8,4.47-1.75,4.22.26,9.05,4.47,10.8Z"/>
  <path class="cls-1" d="m159.27,75.45c1.75,4.22,6.58,6.22,10.8,4.47,4.22-1.75,6.22-6.58,4.47-10.8-1.75-4.22-6.58-6.22-10.8-4.47s-6.22,6.58-4.47,10.8Z"/>
  <path class="cls-1" d="m170.08,120.08c-4.22-1.75-9.05.26-10.8,4.47-1.75,4.22.26,9.05,4.47,10.8,4.22,1.75,9.05-.26,10.8-4.47,1.75-4.22-.26-9.05-4.47-10.8Z"/>
  <path class="cls-1" d="m124.55,159.27c-4.22,1.75-6.22,6.58-4.47,10.8,1.75,4.22,6.58,6.22,10.8,4.47,4.22-1.75,6.22-6.58,4.47-10.8-1.75-4.22-6.58-6.22-10.8-4.47Z"/>
  <path class="cls-1" d="m75.45,159.27c-4.22-1.75-9.05.26-10.8,4.47s.26,9.05,4.47,10.8c4.22,1.75,9.06-.26,10.8-4.47,1.75-4.22-.26-9.05-4.47-10.8Z"/>
  <path class="cls-1" d="m40.73,124.55c-1.75-4.22-6.58-6.22-10.8-4.47-4.22,1.75-6.22,6.58-4.47,10.8s6.58,6.22,10.8,4.47c4.22-1.75,6.22-6.58,4.47-10.8Z"/>
  <path class="cls-1" d="m29.92,79.92c4.22,1.75,9.06-.26,10.8-4.47s-.26-9.05-4.47-10.8c-4.22-1.75-9.06.26-10.8,4.47s.26,9.05,4.47,10.8Z"/>
</svg>