<?xml version="1.0" encoding="UTF-8"?>
<svg id="Layer_1" data-name="Layer 1" xmlns="http://www.w3.org/2000/svg" viewBox="0 0 200 200">
  <defs>
    <style>
      .cls-1 {
        fill: #3d9dd8;
        stroke-width: 0px;
      }
    </style>
  </defs>
  <path class="cls-1" d="m100,18.62c-44.88,0-81.38,36.51-81.38,81.38s36.51,81.38,81.38,81.38,81.38-36.51,81.38-81.38S144.88,18.62,100,18.62Zm0,152.77c-39.36,0-71.38-32.02-71.38-71.38S60.64,28.62,100,28.62s71.38,32.02,71.38,71.38-32.02,71.38-71.38,71.38Z"/>
  <path class="cls-1" d="m100,49.58c-27.8,0-50.42,22.62-50.42,50.42s22.62,50.42,50.42,50.42,50.42-22.62,50.42-50.42-22.62-50.42-50.42-50.42Zm0,90.84c-22.29,0-40.42-18.13-40.42-40.42s18.13-40.42,40.42-40.42,40.42,18.13,40.42,40.42-18.13,40.42-40.42,40.42Z"/>
  <path class="cls-1" d="m100,79.52c-11.29,0-20.48,9.19-20.48,20.48s9.19,20.48,20.48,20.48,20.48-9.19,20.48-20.48-9.19-20.48-20.48-20.48Zm0,30.97c-5.78,0-10.48-4.7-10.48-10.48s4.7-10.48,10.48-10.48,10.48,4.7,10.48,10.48-4.7,10.48-10.48,10.48Z"/>
</svg>