<?xml version="1.0" encoding="UTF-8"?>
<svg id="Layer_1" data-name="Layer 1" xmlns="http://www.w3.org/2000/svg" viewBox="0 0 200 200">
  <defs>
    <style>
      .cls-1 {
        fill: #f78bd8;
        stroke-width: 0px;
      }
    </style>
  </defs>
  <path class="cls-1" d="m173.41,23.43c-2.76,0-5,2.24-5,5v126.63c0,7.36-5.99,13.35-13.35,13.35s-13.35-5.99-13.35-13.35V44.94c0-12.88-10.48-23.35-23.35-23.35s-23.35,10.48-23.35,23.35v110.11c0,7.36-5.99,13.35-13.35,13.35s-13.35-5.99-13.35-13.35V44.94c0-12.88-10.48-23.35-23.35-23.35s-23.35,10.48-23.35,23.35v126.63c0,2.76,2.24,5,5,5s5-2.24,5-5V44.94c0-7.36,5.99-13.35,13.35-13.35s13.35,5.99,13.35,13.35v110.11c0,12.88,10.48,23.35,23.35,23.35s23.35-10.48,23.35-23.35V44.94c0-7.36,5.99-13.35,13.35-13.35s13.35,5.99,13.35,13.35v110.11c0,12.88,10.48,23.35,23.35,23.35s23.35-10.48,23.35-23.35V28.43c0-2.76-2.24-5-5-5Z"/>
</svg>