<?xml version="1.0" encoding="UTF-8"?>
<svg id="Layer_1" data-name="Layer 1" xmlns="http://www.w3.org/2000/svg" viewBox="0 0 200 200">
  <defs>
    <style>
      .cls-1 {
        fill: #0f0f0f;
        stroke-width: 0px;
      }
    </style>
  </defs>
  <path class="cls-1" d="m145.06,100l37.93-67.22c.87-1.55.86-3.44-.04-4.98-.9-1.53-2.54-2.48-4.32-2.48H21.37c-1.78,0-3.42.94-4.32,2.48-.9,1.54-.91,3.43-.04,4.98l37.93,67.22-37.93,67.22c-.87,1.55-.86,3.44.04,4.98.9,1.53,2.54,2.48,4.32,2.48h157.27c1.78,0,3.42-.94,4.32-2.48.9-1.54.91-3.43.04-4.98l-37.93-67.22Zm-5.74-10.17l-30.75-54.5h61.51l-30.75,54.5Zm-5.74,10.17l-33.58,59.5-33.58-59.5,33.58-59.5,33.58,59.5ZM29.93,35.33h61.51l-30.75,54.5-30.75-54.5Zm30.75,74.85l30.75,54.5H29.93l30.75-54.5Zm47.88,54.5l30.75-54.5,30.75,54.5h-61.51Z"/>
</svg>