<?xml version="1.0" encoding="UTF-8"?>
<svg id="Layer_1" data-name="Layer 1" xmlns="http://www.w3.org/2000/svg" viewBox="0 0 200 200">
  <defs>
    <style>
      .cls-1 {
        fill: #fff;
        stroke-width: 0px;
      }
    </style>
  </defs>
  <path class="cls-1" d="m173.7,105c2.76,0,5-2.24,5-5s-2.24-5-5-5h-25.64v-33.05h25.64c2.76,0,5-2.24,5-5s-2.24-5-5-5h-25.64v-25.65c0-2.76-2.24-5-5-5s-5,2.24-5,5v25.65h-33.05v-25.65c0-2.76-2.24-5-5-5s-5,2.24-5,5v25.65h-33.05v-25.65c0-2.76-2.24-5-5-5s-5,2.24-5,5v25.65h-25.64c-2.76,0-5,2.24-5,5s2.24,5,5,5h25.64v33.05h-25.64c-2.76,0-5,2.24-5,5s2.24,5,5,5h25.64v33.05h-25.64c-2.76,0-5,2.24-5,5s2.24,5,5,5h25.64v25.64c0,2.76,2.24,5,5,5s5-2.24,5-5v-25.64h33.05v25.64c0,2.76,2.24,5,5,5s5-2.24,5-5v-25.64h33.05v25.64c0,2.76,2.24,5,5,5s5-2.24,5-5v-25.64h25.64c2.76,0,5-2.24,5-5s-2.24-5-5-5h-25.64v-33.05h25.64Zm-35.64-43.05v33.05h-33.05v-33.05h33.05Zm-76.11,0h33.05v33.05h-33.05v-33.05Zm0,76.11v-33.05h33.05v33.05h-33.05Zm76.11,0h-33.05v-33.05h33.05v33.05Z"/>
</svg>