<?xml version="1.0" encoding="UTF-8"?>
<svg id="Layer_1" data-name="Layer 1" xmlns="http://www.w3.org/2000/svg" viewBox="0 0 200 200">
  <defs>
    <style>
      .cls-1 {
        fill: #0f0f0f;
        stroke-width: 0px;
      }
    </style>
  </defs>
  <path class="cls-1" d="m129.36,21.59c-11,0-21.17,3.64-29.36,9.79-8.19-6.14-18.36-9.79-29.36-9.79-27.04,0-49.04,22-49.04,49.04v58.73c0,27.04,22,49.04,49.04,49.04,11,0,21.17-3.64,29.36-9.79,8.19,6.14,18.36,9.79,29.36,9.79,27.04,0,49.04-22,49.04-49.04v-58.73c0-27.04-22-49.04-49.04-49.04Zm-29.36,133.46c-6.02-6.87-9.68-15.86-9.68-25.69v-58.73c0-9.83,3.66-18.82,9.68-25.69,6.02,6.87,9.68,15.86,9.68,25.69v58.73c0,9.83-3.66,18.82-9.68,25.69Zm-68.41-25.69v-58.73c0-21.53,17.51-39.04,39.04-39.04,8.1,0,15.64,2.48,21.88,6.73-7.59,8.64-12.2,19.95-12.2,32.32v58.73c0,12.37,4.61,23.68,12.2,32.32-6.25,4.24-13.78,6.73-21.88,6.73-21.53,0-39.04-17.52-39.04-39.04Zm136.81,0c0,21.53-17.51,39.04-39.04,39.04-8.1,0-15.64-2.48-21.88-6.73,7.59-8.64,12.2-19.95,12.2-32.32v-58.73c0-12.37-4.61-23.68-12.2-32.32,6.25-4.24,13.78-6.73,21.88-6.73,21.53,0,39.04,17.51,39.04,39.04v58.73Z"/>
</svg>