<?xml version="1.0" encoding="UTF-8"?>
<svg id="Layer_1" data-name="Layer 1" xmlns="http://www.w3.org/2000/svg" viewBox="0 0 200 200">
  <defs>
    <style>
      .cls-1 {
        fill: #fff;
        stroke-width: 0px;
      }
    </style>
  </defs>
  <path class="cls-1" d="m171.14,23.86H28.86c-2.76,0-5,2.24-5,5s2.24,5,5,5h137.27v137.27c0,2.76,2.24,5,5,5s5-2.24,5-5V28.86c0-2.76-2.24-5-5-5Z"/>
  <path class="cls-1" d="m139.29,55.71H28.86c-2.76,0-5,2.24-5,5s2.24,5,5,5h105.43v105.43c0,2.76,2.24,5,5,5s5-2.24,5-5V60.71c0-2.76-2.24-5-5-5Z"/>
  <path class="cls-1" d="m107.45,87.55H28.86c-2.76,0-5,2.24-5,5s2.24,5,5,5h73.59v73.59c0,2.76,2.24,5,5,5s5-2.24,5-5v-78.59c0-2.76-2.24-5-5-5Z"/>
  <path class="cls-1" d="m75.61,119.39H28.86c-2.76,0-5,2.24-5,5s2.24,5,5,5h41.75v41.75c0,2.76,2.24,5,5,5s5-2.24,5-5v-46.75c0-2.76-2.24-5-5-5Z"/>
  <path class="cls-1" d="m43.77,151.23h-14.9c-2.76,0-5,2.24-5,5s2.24,5,5,5h9.9v9.9c0,2.76,2.24,5,5,5s5-2.24,5-5v-14.9c0-2.76-2.24-5-5-5Z"/>
</svg>