<?xml version="1.0" encoding="UTF-8"?>
<svg id="Layer_1" data-name="Layer 1" xmlns="http://www.w3.org/2000/svg" viewBox="0 0 200 200">
  <defs>
    <style>
      .cls-1 {
        fill: #f78bd8;
        stroke-width: 0px;
      }
    </style>
  </defs>
  <path class="cls-1" d="m42.96,95.86c-7.53-5.6-14.03-10.44-14.03-19.87s6.5-14.26,14.03-19.86c8.46-6.3,18.05-13.44,18.05-27.88,0-2.76-2.24-5-5-5s-5,2.24-5,5c0,9.42-6.5,14.26-14.03,19.86-8.46,6.3-18.05,13.44-18.05,27.88s9.59,21.59,18.05,27.89c7.53,5.6,14.03,10.44,14.03,19.87s-6.5,14.26-14.03,19.87c-8.46,6.3-18.05,13.44-18.05,27.89,0,2.76,2.24,5,5,5s5-2.24,5-5c0-9.43,6.5-14.26,14.03-19.87,8.46-6.3,18.05-13.44,18.05-27.89s-9.59-21.59-18.05-27.89Z"/>
  <path class="cls-1" d="m82.98,95.94c-7.53-5.6-14.03-10.44-14.03-19.87s6.5-14.26,14.03-19.86c8.46-6.3,18.05-13.44,18.05-27.88,0-2.76-2.24-5-5-5s-5,2.24-5,5c0,9.42-6.5,14.26-14.02,19.86-8.46,6.3-18.06,13.44-18.06,27.88s9.59,21.59,18.05,27.89c7.53,5.6,14.03,10.44,14.03,19.87s-6.5,14.26-14.03,19.87c-8.46,6.3-18.05,13.44-18.05,27.89,0,2.76,2.24,5,5,5s5-2.24,5-5c0-9.43,6.5-14.26,14.03-19.87,8.46-6.3,18.05-13.44,18.05-27.89s-9.59-21.59-18.05-27.89Z"/>
  <path class="cls-1" d="m122.99,96.03c-7.53-5.6-14.03-10.44-14.03-19.87s6.5-14.26,14.03-19.86c8.46-6.3,18.05-13.44,18.05-27.88,0-2.76-2.24-5-5-5s-5,2.24-5,5c0,9.42-6.5,14.26-14.03,19.86-8.46,6.3-18.05,13.44-18.05,27.88s9.59,21.59,18.05,27.89c7.53,5.6,14.03,10.44,14.03,19.87s-6.5,14.26-14.03,19.87c-8.46,6.3-18.05,13.44-18.05,27.89,0,2.76,2.24,5,5,5s5-2.24,5-5c0-9.43,6.5-14.26,14.03-19.87,8.46-6.3,18.05-13.44,18.05-27.89s-9.59-21.59-18.05-27.89Z"/>
  <path class="cls-1" d="m163.01,96.11c-7.53-5.6-14.03-10.44-14.03-19.87s6.5-14.26,14.03-19.86c8.46-6.3,18.05-13.44,18.05-27.88,0-2.76-2.24-5-5-5s-5,2.24-5,5c0,9.42-6.5,14.26-14.02,19.86-8.46,6.3-18.06,13.44-18.06,27.89s9.59,21.59,18.05,27.89c7.53,5.6,14.03,10.44,14.03,19.87s-6.5,14.26-14.03,19.87c-8.46,6.3-18.05,13.44-18.05,27.89,0,2.76,2.24,5,5,5s5-2.24,5-5c0-9.43,6.5-14.26,14.03-19.87,8.46-6.3,18.05-13.44,18.05-27.89s-9.59-21.59-18.05-27.89Z"/>
</svg>