<?xml version="1.0" encoding="UTF-8"?>
<svg id="Layer_1" data-name="Layer 1" xmlns="http://www.w3.org/2000/svg" viewBox="0 0 200 200">
  <defs>
    <style>
      .cls-1 {
        fill: #0f0f0f;
        stroke-width: 0px;
      }
    </style>
  </defs>
  <path class="cls-1" d="m193.5,97.04l-52.07-71.01c-.94-1.28-2.44-2.04-4.03-2.04H62.6c-1.59,0-3.09.76-4.03,2.04L6.5,97.04c-1.29,1.76-1.29,4.15,0,5.91l52.07,71.01c.94,1.28,2.44,2.04,4.03,2.04h74.8c1.59,0,3.09-.76,4.03-2.04l52.07-71.01c1.29-1.76,1.29-4.15,0-5.91Zm-13.9-2.04h-60.5l-12.9-17.59,30.25-41.25,43.15,58.84Zm-69.24,5l-10.37,14.14-10.37-14.14,10.37-14.14,10.37,14.14Zm-10.37-31.05l-25.64-34.96h51.27l-25.64,34.96Zm-36.45-32.79l30.25,41.25-12.9,17.59H20.4l43.15-58.84ZM20.4,105h60.5l12.9,17.59-30.25,41.25-43.15-58.84Zm79.6,26.05l25.64,34.96h-51.27l25.64-34.96Zm36.45,32.8l-30.25-41.25,12.9-17.59h60.5l-43.15,58.84Z"/>
</svg>