<?xml version="1.0" encoding="UTF-8"?>
<svg id="Layer_1" data-name="Layer 1" xmlns="http://www.w3.org/2000/svg" viewBox="0 0 200 200">
  <defs>
    <style>
      .cls-1 {
        fill: #3d9dd8;
        stroke-width: 0px;
      }
    </style>
  </defs>
  <path class="cls-1" d="m100,126.23c-4.57,0-8.27,3.7-8.27,8.27s3.7,8.27,8.27,8.27,8.27-3.7,8.27-8.27-3.7-8.27-8.27-8.27Z"/>
  <path class="cls-1" d="m100,160.73c-4.57,0-8.27,3.7-8.27,8.27s3.7,8.27,8.27,8.27,8.27-3.7,8.27-8.27-3.7-8.27-8.27-8.27Z"/>
  <path class="cls-1" d="m100,22.73c-4.57,0-8.27,3.7-8.27,8.27s3.7,8.27,8.27,8.27,8.27-3.7,8.27-8.27-3.7-8.27-8.27-8.27Z"/>
  <path class="cls-1" d="m100,57.23c-4.57,0-8.27,3.7-8.27,8.27s3.7,8.27,8.27,8.27,8.27-3.7,8.27-8.27-3.7-8.27-8.27-8.27Z"/>
  <path class="cls-1" d="m27.07,91.73c-4.57,0-8.27,3.7-8.27,8.27s3.7,8.27,8.27,8.27,8.27-3.7,8.27-8.27-3.7-8.27-8.27-8.27Z"/>
  <path class="cls-1" d="m27.07,126.23c-4.57,0-8.27,3.7-8.27,8.27s3.7,8.27,8.27,8.27,8.27-3.7,8.27-8.27-3.7-8.27-8.27-8.27Z"/>
  <path class="cls-1" d="m27.07,160.73c-4.57,0-8.27,3.7-8.27,8.27s3.7,8.27,8.27,8.27,8.27-3.7,8.27-8.27-3.7-8.27-8.27-8.27Z"/>
  <path class="cls-1" d="m27.07,57.23c-4.57,0-8.27,3.7-8.27,8.27s3.7,8.27,8.27,8.27,8.27-3.7,8.27-8.27-3.7-8.27-8.27-8.27Z"/>
  <circle class="cls-1" cx="63.54" cy="100" r="8.27"/>
  <circle class="cls-1" cx="63.54" cy="134.5" r="8.27"/>
  <circle class="cls-1" cx="63.54" cy="169" r="8.27"/>
  <circle class="cls-1" cx="63.54" cy="31" r="8.27"/>
  <circle class="cls-1" cx="63.54" cy="65.5" r="8.27"/>
  <path class="cls-1" d="m172.93,91.73c-4.57,0-8.27,3.7-8.27,8.27s3.7,8.27,8.27,8.27,8.27-3.7,8.27-8.27-3.7-8.27-8.27-8.27Z"/>
  <path class="cls-1" d="m172.93,126.23c-4.57,0-8.27,3.7-8.27,8.27s3.7,8.27,8.27,8.27,8.27-3.7,8.27-8.27-3.7-8.27-8.27-8.27Z"/>
  <path class="cls-1" d="m172.93,39.27c4.57,0,8.27-3.7,8.27-8.27s-3.7-8.27-8.27-8.27-8.27,3.7-8.27,8.27,3.7,8.27,8.27,8.27Z"/>
  <path class="cls-1" d="m172.93,57.23c-4.57,0-8.27,3.7-8.27,8.27s3.7,8.27,8.27,8.27,8.27-3.7,8.27-8.27-3.7-8.27-8.27-8.27Z"/>
  <circle class="cls-1" cx="136.46" cy="100" r="8.27"/>
  <circle class="cls-1" cx="136.46" cy="134.5" r="8.27"/>
  <circle class="cls-1" cx="136.46" cy="169" r="8.27"/>
  <circle class="cls-1" cx="136.46" cy="31" r="8.27"/>
  <circle class="cls-1" cx="136.46" cy="65.5" r="8.27"/>
</svg>