<?xml version="1.0" encoding="UTF-8"?>
<svg id="Layer_1" data-name="Layer 1" xmlns="http://www.w3.org/2000/svg" viewBox="0 0 1750 300">
  <defs>
    <style>
      .cls-1 {
        fill: #fff;
        stroke-width: 0px;
      }
    </style>
  </defs>
  <g>
    <path class="cls-1" d="m989.53,208.92v-78.46h-37.33v-39.06h37.33v-55.64h46.66v55.64h51.84v39.06h-51.84v73.97c0,13.83,6.91,20.74,20.74,20.74h31.1v39.06h-39.75c-39.4,0-58.76-18.32-58.76-55.3Z"/>
    <path class="cls-1" d="m1095.61,177.81c0-54.26,35.6-91.94,86.75-91.94s86.41,37.33,86.41,92.63v13.13h-125.12c0,22.81,17.63,39.06,42.17,39.06,16.94,0,30.76-7.95,35.95-20.74l47.01,3.45c-5.18,33.87-37.68,56.34-80.88,56.34-55.3,0-92.28-36.64-92.28-91.94Zm125.12-20.05c0-20.74-14.17-32.83-38.36-32.83s-38.71,12.44-38.71,32.83h77.08Z"/>
    <path class="cls-1" d="m1290.21,91.4h46.66v36.29c7.26-23.5,20.05-36.29,38.36-36.29h31.8v39.06h-28.34c-30.76,0-41.82,16.24-41.82,61.87v71.89h-46.66V91.4Z"/>
    <path class="cls-1" d="m1418.44,91.4h46.66v36.29c7.26-23.5,20.04-36.29,38.36-36.29h31.8v39.06h-28.34c-30.76,0-41.82,16.24-41.82,61.87v71.89h-46.66V91.4Z"/>
    <path class="cls-1" d="m1539.41,218.25c0-34.22,26.27-53.57,76.04-55.65,28.69-1.38,41.82-7.95,39.75-20.05-1.73-10.37-13.48-17.63-28.69-17.63-20.05,0-35.95,12.44-35.95,28l-46.32-3.45c0-36.98,34.56-63.6,82.26-63.6s75.69,25.58,75.69,65.67v112.67h-46.66v-34.56c-7.6,26.27-26.96,40.09-57.37,40.09-36.29,0-58.76-19.7-58.76-51.5Zm70.86,12.44c26.27,0,45.28-22.81,45.28-50.46v-3.45c-7.26,8.3-18.66,13.83-33.87,15.9-13.48,1.73-34.56,1.04-34.56,19.7,0,12.79,10.02,18.32,23.16,18.32Z"/>
  </g>
  <g>
    <path class="cls-1" d="m762.34,82.23c-6.96,0-12.6,5.64-12.6,12.6s5.64,12.6,12.6,12.6,12.6-5.64,12.6-12.6-5.64-12.6-12.6-12.6Z"/>
    <path class="cls-1" d="m762.34,27.05c-6.96,0-12.6,5.64-12.6,12.6s5.64,12.6,12.6,12.6,12.6-5.64,12.6-12.6-5.64-12.6-12.6-12.6Z"/>
    <circle class="cls-1" cx="801.35" cy="110.99" r="12.6"/>
    <circle class="cls-1" cx="840.37" cy="71.97" r="12.6"/>
    <circle class="cls-1" cx="817.51" cy="150" r="12.6"/>
    <path class="cls-1" d="m872.69,137.4c-6.96,0-12.6,5.64-12.6,12.6s5.64,12.6,12.6,12.6,12.6-5.64,12.6-12.6-5.64-12.6-12.6-12.6Z"/>
    <circle class="cls-1" cx="801.35" cy="189.01" r="12.6"/>
    <circle class="cls-1" cx="840.37" cy="228.03" r="12.6"/>
    <path class="cls-1" d="m762.34,192.58c-6.96,0-12.6,5.64-12.6,12.6s5.64,12.6,12.6,12.6,12.6-5.64,12.6-12.6-5.64-12.6-12.6-12.6Z"/>
    <path class="cls-1" d="m762.34,247.75c-6.96,0-12.6,5.64-12.6,12.6s5.64,12.6,12.6,12.6,12.6-5.64,12.6-12.6-5.64-12.6-12.6-12.6Z"/>
    <path class="cls-1" d="m714.42,180.11c-4.92,4.92-4.92,12.9,0,17.81,4.92,4.92,12.9,4.92,17.81,0,4.92-4.92,4.92-12.9,0-17.81-4.92-4.92-12.9-4.92-17.81,0Z"/>
    <path class="cls-1" d="m675.4,219.12c-4.92,4.92-4.92,12.9,0,17.81,4.92,4.92,12.9,4.92,17.81,0,4.92-4.92,4.92-12.9,0-17.81-4.92-4.92-12.9-4.92-17.81,0Z"/>
    <path class="cls-1" d="m719.76,150c0-6.96-5.64-12.6-12.6-12.6s-12.6,5.64-12.6,12.6,5.64,12.6,12.6,12.6,12.6-5.64,12.6-12.6Z"/>
    <path class="cls-1" d="m664.58,150c0-6.96-5.64-12.6-12.6-12.6s-12.6,5.64-12.6,12.6,5.64,12.6,12.6,12.6,12.6-5.64,12.6-12.6Z"/>
    <path class="cls-1" d="m714.42,102.08c-4.92,4.92-4.92,12.9,0,17.81,4.92,4.92,12.9,4.92,17.81,0,4.92-4.92,4.92-12.9,0-17.81-4.92-4.92-12.9-4.92-17.81,0Z"/>
    <path class="cls-1" d="m693.22,80.88c4.92-4.92,4.92-12.9,0-17.81-4.92-4.92-12.9-4.92-17.81,0-4.92,4.92-4.92,12.9,0,17.81,4.92,4.92,12.9,4.92,17.81,0Z"/>
    <path class="cls-1" d="m724.93,59.69c6.43-2.66,9.48-10.03,6.82-16.46-2.66-6.43-10.03-9.48-16.46-6.82-6.43,2.66-9.48,10.03-6.82,16.46,2.66,6.43,10.03,9.48,16.46,6.82Z"/>
    <path class="cls-1" d="m799.75,59.69c6.43,2.66,13.8-.39,16.46-6.82,2.66-6.43-.39-13.8-6.82-16.46-6.43-2.66-13.8.39-16.46,6.82-2.66,6.43.39,13.8,6.82,16.46Z"/>
    <path class="cls-1" d="m852.65,112.59c2.66,6.43,10.03,9.48,16.46,6.82,6.43-2.66,9.48-10.03,6.82-16.46-2.66-6.43-10.03-9.48-16.46-6.82-6.43,2.66-9.48,10.03-6.82,16.46Z"/>
    <path class="cls-1" d="m869.11,180.59c-6.43-2.66-13.8.39-16.46,6.82-2.66,6.43.39,13.8,6.82,16.46,6.43,2.66,13.8-.39,16.46-6.82,2.66-6.43-.39-13.8-6.82-16.46Z"/>
    <path class="cls-1" d="m799.75,240.31c-6.43,2.66-9.48,10.03-6.82,16.46,2.66,6.43,10.03,9.48,16.46,6.82,6.43-2.66,9.48-10.03,6.82-16.46-2.66-6.43-10.03-9.48-16.46-6.82Z"/>
    <path class="cls-1" d="m724.93,240.31c-6.43-2.66-13.8.39-16.46,6.82-2.66,6.43.39,13.8,6.82,16.46,6.43,2.66,13.8-.39,16.46-6.82,2.66-6.43-.39-13.8-6.82-16.46Z"/>
    <path class="cls-1" d="m672.03,187.41c-2.66-6.43-10.03-9.48-16.46-6.82-6.43,2.66-9.48,10.03-6.82,16.46,2.66,6.43,10.03,9.48,16.46,6.82,6.43-2.66,9.48-10.03,6.82-16.46Z"/>
    <path class="cls-1" d="m655.57,119.41c6.43,2.66,13.8-.39,16.46-6.82,2.66-6.43-.39-13.8-6.82-16.46-6.43-2.66-13.8.39-16.46,6.82-2.66,6.43.39,13.8,6.82,16.46Z"/>
  </g>
  <path class="cls-1" d="m572.36,33.33c-4.21,0-7.62,3.41-7.62,7.62v192.93c0,11.22-9.13,20.34-20.34,20.34s-20.34-9.13-20.34-20.34V66.12c0-19.62-15.96-35.58-35.58-35.58s-35.58,15.96-35.58,35.58v167.77c0,11.22-9.13,20.34-20.34,20.34s-20.34-9.13-20.34-20.34V66.12c0-19.62-15.96-35.58-35.58-35.58s-35.58,15.96-35.58,35.58v192.93c0,4.21,3.41,7.62,7.62,7.62s7.62-3.41,7.62-7.62V66.12c0-11.22,9.13-20.34,20.34-20.34s20.34,9.13,20.34,20.34v167.77c0,19.62,15.96,35.58,35.58,35.58s35.58-15.96,35.58-35.58V66.12c0-11.22,9.13-20.34,20.34-20.34s20.34,9.13,20.34,20.34v167.77c0,19.62,15.96,35.58,35.58,35.58s35.58-15.96,35.58-35.58V40.95c0-4.21-3.41-7.62-7.62-7.62Z"/>
  <g>
    <path class="cls-1" d="m272.5,39.65c-.05-.23-.13-.44-.2-.66-.08-.25-.13-.51-.24-.76-.11-.27-.26-.51-.4-.76-.1-.18-.18-.38-.3-.55-.56-.84-1.28-1.56-2.11-2.11-.18-.12-.38-.2-.57-.31-.25-.14-.48-.28-.74-.39-.25-.1-.51-.16-.77-.24-.22-.06-.43-.15-.66-.19-.49-.1-.99-.15-1.49-.15h-75.4c-4.21,0-7.62,3.41-7.62,7.62s3.41,7.62,7.62,7.62h57.01l-62.4,62.4c-2.98,2.97-2.98,7.8,0,10.77,1.49,1.49,3.44,2.23,5.39,2.23s3.9-.74,5.39-2.23l62.4-62.4v57.01c0,4.21,3.41,7.62,7.62,7.62s7.62-3.41,7.62-7.62V41.14c0-.5-.05-1-.15-1.49Z"/>
    <path class="cls-1" d="m136.11,38.98c-.08-.25-.13-.51-.24-.76-.11-.27-.26-.51-.4-.76-.1-.18-.18-.38-.3-.55-.56-.84-1.28-1.56-2.11-2.11-.18-.12-.38-.2-.57-.31-.25-.14-.48-.28-.74-.39-.25-.1-.51-.16-.77-.24-.22-.06-.43-.15-.66-.19-.49-.1-.99-.15-1.49-.15H53.43c-4.21,0-7.62,3.41-7.62,7.62s3.41,7.62,7.62,7.62h57.01l-62.4,62.4c-2.98,2.97-2.98,7.8,0,10.77,1.49,1.49,3.44,2.23,5.39,2.23s3.9-.74,5.39-2.23l62.4-62.4v57.01c0,4.21,3.41,7.62,7.62,7.62s7.62-3.41,7.62-7.62V41.14c0-.5-.05-1-.15-1.49-.05-.23-.13-.44-.2-.66Z"/>
    <path class="cls-1" d="m270.42,178.07c-2.97-2.98-7.8-2.98-10.77,0l-62.4,62.4v-57.01c0-4.21-3.41-7.62-7.62-7.62s-7.62,3.41-7.62,7.62v75.4c0,.5.05,1,.15,1.49.05.23.13.44.2.66.07.25.13.51.24.76.11.27.26.51.4.76.1.18.18.37.3.55.56.84,1.28,1.56,2.11,2.11.18.12.37.2.56.3.25.14.49.29.75.4.25.1.5.16.76.24.22.07.43.15.66.2.49.1.99.15,1.49.15h75.4c4.21,0,7.62-3.41,7.62-7.62s-3.41-7.62-7.62-7.62h-57.01l62.4-62.4c2.98-2.97,2.98-7.8,0-10.77Z"/>
    <path class="cls-1" d="m136.11,181.31c-.08-.25-.13-.51-.24-.76-.11-.27-.26-.51-.4-.76-.1-.18-.18-.38-.3-.55-.56-.84-1.28-1.56-2.11-2.11-.18-.12-.38-.2-.57-.31-.25-.14-.48-.28-.74-.39-.25-.1-.51-.16-.77-.24-.22-.06-.43-.15-.66-.19-.49-.1-.99-.15-1.49-.15H53.43c-4.21,0-7.62,3.41-7.62,7.62s3.41,7.62,7.62,7.62h57.01l-62.4,62.4c-2.98,2.97-2.98,7.8,0,10.77,1.49,1.49,3.44,2.23,5.39,2.23s3.9-.74,5.39-2.23l62.4-62.4v57.01c0,4.21,3.41,7.62,7.62,7.62s7.62-3.41,7.62-7.62v-75.4c0-.5-.05-1-.15-1.49-.05-.23-.13-.44-.2-.66Z"/>
  </g>
</svg>