<?xml version="1.0" encoding="UTF-8"?>
<svg id="Layer_1" data-name="Layer 1" xmlns="http://www.w3.org/2000/svg" viewBox="0 0 1750 300">
  <defs>
    <style>
      .cls-1 {
        fill: #fff;
        stroke-width: 0px;
      }
    </style>
  </defs>
  <path class="cls-1" d="m301.36,145.5l-79.15-107.93c-1.43-1.95-3.71-3.11-6.13-3.11h-113.69c-2.42,0-4.7,1.15-6.13,3.11L17.11,145.51c-1.96,2.68-1.96,6.31,0,8.99l79.15,107.93c1.43,1.95,3.71,3.11,6.13,3.11h113.69c2.42,0,4.7-1.15,6.13-3.11l79.15-107.93c1.96-2.68,1.96-6.31,0-8.99Zm-21.13-3.11h-91.96l-19.61-26.74,45.98-62.7,65.59,89.44Zm-105.24,7.6l-15.76,21.49-15.76-21.49,15.76-21.49,15.76,21.49Zm-15.76-47.19l-38.97-53.14h77.94l-38.97,53.14Zm-55.41-49.85l45.98,62.7-19.61,26.74H38.24L103.83,52.96Zm-65.59,104.64h91.96l19.61,26.74-45.98,62.7-65.59-89.44Zm121,39.59l38.97,53.14h-77.94l38.97-53.14Zm55.41,49.85l-45.98-62.7,19.61-26.74h91.96l-65.59,89.44Z"/>
  <path class="cls-1" d="m587.3,130.97l-46.3-6.01s-.09-.19-.01-.32l33.86-32.01c7.21-6.82,8.18-17.19,2.34-25.22-5.84-8.03-15.99-10.32-24.71-5.57l-40.99,22.35c-.06,0-.19-.1-.2-.25l8.58-45.79c1.83-9.76-3.49-18.71-12.93-21.78-9.44-3.07-19,1.05-23.26,10.02l-19.98,42.09-.05.09c-.06.03-.21.03-.31-.09l-19.98-42.09c-4.25-8.97-13.82-13.09-23.26-10.02-9.44,3.07-14.76,12.02-12.93,21.78l8.59,45.89c-.02.06-.15.15-.3.11l-40.9-22.31c-8.72-4.75-18.87-2.46-24.71,5.57-5.83,8.03-4.87,18.4,2.34,25.22l33.93,32.08c.01.06-.03.21-.18.27l-46.2,5.99c-9.84,1.28-16.72,9.1-16.72,19.03s6.88,17.75,16.72,19.03l46.3,6.01s.09.19.01.32l-33.86,32.01c-7.21,6.82-8.18,17.19-2.34,25.22,5.83,8.03,15.99,10.32,24.71,5.57l40.99-22.35c.06,0,.19.1.2.25l-8.58,45.79c-1.83,9.76,3.49,18.71,12.93,21.78,2.09.68,4.19,1.01,6.23,1.01,7.19,0,13.72-4.04,17.03-11.03l20.03-42.18c.06-.03.21-.03.31.09l19.98,42.09c4.25,8.97,13.81,13.09,23.26,10.02,9.44-3.07,14.76-12.02,12.93-21.78l-8.59-45.89c.03-.06.15-.15.3-.11l40.9,22.31c8.71,4.75,18.88,2.46,24.71-5.57,5.83-8.03,4.87-18.4-2.34-25.22l-33.93-32.08c-.01-.06.03-.21.18-.27l46.2-5.99c9.84-1.28,16.72-9.1,16.72-19.03s-6.87-17.75-16.72-19.03Zm-1.96,22.98l-46.2,5.99c-5.96.77-10.81,4.8-12.66,10.51-1.86,5.71-.3,11.82,4.07,15.95l33.86,32.01c2.21,2.09,1.25,4.18.49,5.24s-2.46,2.62-5.13,1.16l-40.9-22.31c-5.27-2.88-11.56-2.47-16.42,1.06s-7.19,9.39-6.08,15.29l8.58,45.79c.56,3-1.44,4.12-2.69,4.53-1.25.4-3.53.67-4.83-2.08l-19.98-42.09c-2.57-5.43-7.9-8.8-13.91-8.8s-11.34,3.37-13.91,8.8l-19.98,42.09c-1.31,2.75-3.59,2.49-4.83,2.08-1.24-.4-3.25-1.53-2.69-4.53l8.58-45.79c1.11-5.9-1.22-11.76-6.08-15.29-2.71-1.97-5.86-2.96-9.03-2.96-2.52,0-5.06.63-7.39,1.9l-40.9,22.31c-2.67,1.46-4.36-.1-5.13-1.16-.77-1.06-1.73-3.15.49-5.24l33.86-32.01c4.36-4.13,5.92-10.24,4.07-15.95-1.86-5.71-6.71-9.74-12.66-10.51l-46.2-5.99c-3.02-.39-3.47-2.64-3.47-3.95s.45-3.56,3.47-3.95l46.2-5.99c5.96-.77,10.81-4.8,12.66-10.51,1.86-5.71.3-11.82-4.07-15.95l-33.86-32.01c-2.21-2.09-1.26-4.18-.49-5.24.77-1.06,2.46-2.61,5.13-1.16l40.9,22.31c5.27,2.88,11.57,2.47,16.42-1.06,4.86-3.53,7.19-9.39,6.08-15.29l-8.58-45.79c-.56-2.99,1.44-4.12,2.69-4.52,1.24-.4,3.53-.67,4.83,2.08l19.98,42.09c2.57,5.43,7.9,8.8,13.91,8.8s11.34-3.37,13.91-8.8l19.98-42.09c1.31-2.75,3.59-2.49,4.83-2.08,1.24.4,3.25,1.53,2.69,4.53l-8.58,45.79c-1.1,5.9,1.23,11.76,6.09,15.29,4.86,3.53,11.15,3.93,16.42,1.06l40.9-22.31c2.67-1.46,4.36.1,5.13,1.16.77,1.06,1.73,3.15-.49,5.24l-33.86,32.01c-4.36,4.13-5.92,10.24-4.07,15.95,1.86,5.71,6.71,9.74,12.66,10.51l46.21,5.99c3.02.39,3.47,2.64,3.47,3.95s-.45,3.56-3.47,3.95Z"/>
  <path class="cls-1" d="m807.1,30.45c-16.73,0-32.18,5.54-44.63,14.87-12.45-9.34-27.91-14.87-44.63-14.87-41.1,0-74.55,33.44-74.55,74.55v89.26c0,41.11,33.44,74.55,74.55,74.55,16.73,0,32.18-5.54,44.63-14.87,12.45,9.34,27.91,14.87,44.63,14.87,41.1,0,74.55-33.44,74.55-74.55v-89.26c0-41.1-33.44-74.55-74.55-74.55Zm-44.63,202.86c-9.15-10.45-14.72-24.11-14.72-39.05v-89.26c0-14.95,5.56-28.61,14.72-39.05,9.15,10.44,14.72,24.11,14.72,39.05v89.26c0,14.95-5.56,28.61-14.72,39.05Zm-103.98-39.05v-89.26c0-32.72,26.62-59.35,59.35-59.35,12.32,0,23.77,3.77,33.26,10.22-11.53,13.13-18.55,30.32-18.55,49.12v89.26c0,18.81,7.01,36,18.55,49.12-9.49,6.45-20.94,10.22-33.26,10.22-32.72,0-59.35-26.62-59.35-59.35Zm207.95,0c0,32.72-26.62,59.35-59.35,59.35-12.32,0-23.77-3.77-33.26-10.22,11.53-13.13,18.55-30.32,18.55-49.12v-89.26c0-18.81-7.01-35.99-18.55-49.12,9.49-6.45,20.94-10.22,33.26-10.22,32.72,0,59.35,26.62,59.35,59.35v89.26Z"/>
  <g>
    <path class="cls-1" d="m989.53,208.92v-78.46h-37.33v-39.06h37.33v-55.64h46.66v55.64h51.84v39.06h-51.84v73.97c0,13.83,6.91,20.74,20.74,20.74h31.1v39.06h-39.75c-39.4,0-58.76-18.32-58.76-55.3Z"/>
    <path class="cls-1" d="m1095.61,177.81c0-54.26,35.6-91.94,86.75-91.94s86.41,37.33,86.41,92.63v13.13h-125.12c0,22.81,17.63,39.06,42.17,39.06,16.94,0,30.76-7.95,35.95-20.74l47.01,3.45c-5.18,33.87-37.68,56.34-80.88,56.34-55.3,0-92.28-36.64-92.28-91.94Zm125.12-20.05c0-20.74-14.17-32.83-38.36-32.83s-38.71,12.44-38.71,32.83h77.08Z"/>
    <path class="cls-1" d="m1290.21,91.4h46.66v36.29c7.26-23.5,20.05-36.29,38.36-36.29h31.8v39.06h-28.34c-30.76,0-41.82,16.24-41.82,61.87v71.89h-46.66V91.4Z"/>
    <path class="cls-1" d="m1418.44,91.4h46.66v36.29c7.26-23.5,20.04-36.29,38.36-36.29h31.8v39.06h-28.34c-30.76,0-41.82,16.24-41.82,61.87v71.89h-46.66V91.4Z"/>
    <path class="cls-1" d="m1539.41,218.25c0-34.22,26.27-53.57,76.04-55.65,28.69-1.38,41.82-7.95,39.75-20.05-1.73-10.37-13.48-17.63-28.69-17.63-20.05,0-35.95,12.44-35.95,28l-46.32-3.45c0-36.98,34.56-63.6,82.26-63.6s75.69,25.58,75.69,65.67v112.67h-46.66v-34.56c-7.6,26.27-26.96,40.09-57.37,40.09-36.29,0-58.76-19.7-58.76-51.5Zm70.86,12.44c26.27,0,45.28-22.81,45.28-50.46v-3.45c-7.26,8.3-18.66,13.83-33.87,15.9-13.48,1.73-34.56,1.04-34.56,19.7,0,12.79,10.02,18.32,23.16,18.32Z"/>
  </g>
</svg>