<svg width="85" height="85" viewBox="0 0 85 85" fill="white" xmlns="http://www.w3.org/2000/svg">
<path d="M48.3675 47.5917C48.3981 47.6223 48.4286 47.6223 48.4439 47.6375C48.4745 47.6681 48.505 47.6681 48.5509 47.6834C48.5967 47.6987 48.6273 47.6987 48.6732 47.714C48.7037 47.714 48.719 47.7292 48.7649 47.7445C48.9024 47.7598 49.04 47.7751 49.1928 47.7445C49.2234 47.7445 49.2387 47.7292 49.2845 47.714C49.3304 47.6987 49.3609 47.6987 49.4068 47.6834C49.4526 47.6681 49.4679 47.6528 49.5138 47.6375C49.5291 47.6223 49.5749 47.607 49.5902 47.5917C49.6361 47.5458 49.6819 47.5 49.7278 47.4541L57.2933 39.8886C57.7212 39.4607 57.7212 38.7882 57.2933 38.3602C56.8653 37.9323 56.1928 37.9323 55.7649 38.3602L50.0487 44.0764L50.0487 31.5436C50.0487 30.9323 49.5749 30.4585 48.9636 30.4585C48.6579 30.4585 48.3828 30.5807 48.1994 30.7641C48.016 30.9475 47.8784 31.2685 47.8937 31.5589L47.8937 44.0917L42.1775 38.3755C41.7496 37.9476 41.0771 37.9476 40.6491 38.3755C40.2212 38.8035 40.2212 39.4759 40.6491 39.9039L48.1994 47.4541C48.2452 47.5 48.3064 47.5611 48.3675 47.5917Z" fill="white"/>
</svg>
